<?xml version="1.0" standalone="no"?>
<!DOCTYPE svg PUBLIC "-//W3C//DTD SVG 20010904//EN"
 "http://www.w3.org/TR/2001/REC-SVG-20010904/DTD/svg10.dtd">
<svg version="1.0" xmlns="http://www.w3.org/2000/svg"
 width="1024.000000pt" height="1024.000000pt" viewBox="0 0 1024.000000 1024.000000"
 preserveAspectRatio="xMidYMid meet">
<metadata>
Created by potrace 1.11, written by Peter Selinger 2001-2013
</metadata>
<g transform="translate(0.000000,1024.000000) scale(0.100000,-0.100000)"
fill="#000000" stroke="none">
<path d="M5018 8489 c-155 -24 -252 -80 -513 -293 -121 -99 -225 -185 -231
-191 -7 -5 -20 -17 -31 -25 -56 -45 -121 -97 -143 -116 -14 -12 -119 -99 -235
-194 -115 -94 -228 -187 -250 -205 -37 -31 -991 -816 -1354 -1113 -85 -70
-225 -185 -310 -255 -86 -71 -214 -177 -286 -235 -71 -59 -139 -114 -150 -124
-11 -9 -141 -116 -290 -238 -281 -230 -335 -275 -372 -308 -13 -10 -30 -36
-39 -57 -32 -78 -23 -146 30 -203 20 -22 91 -109 189 -232 223 -281 244 -299
335 -300 46 0 73 15 158 86 67 57 361 299 709 585 11 10 41 34 66 55 26 22 55
46 65 54 11 8 71 58 134 111 63 52 270 223 460 379 330 272 528 435 726 599
50 42 201 166 334 276 245 201 658 542 695 573 195 163 301 246 331 258 52 22
134 20 186 -5 33 -15 424 -328 573 -459 11 -10 83 -69 160 -132 77 -63 151
-125 165 -136 14 -12 144 -120 290 -240 146 -120 315 -259 375 -309 61 -50
290 -240 510 -421 734 -605 1259 -1038 1368 -1129 165 -137 182 -147 243 -147
64 0 107 35 231 189 65 81 125 157 135 168 120 145 180 226 188 254 12 43 -3
114 -32 156 -11 17 -124 113 -250 215 -258 208 -232 187 -428 346 -80 65 -149
121 -155 126 -5 4 -31 25 -56 45 -25 21 -125 102 -222 181 l-177 143 -2 1077
c-3 1053 -3 1078 -23 1110 -11 18 -37 45 -59 60 l-39 27 -471 1 c-309 1 -480
-2 -496 -9 -34 -15 -78 -56 -98 -92 -15 -27 -17 -93 -18 -600 -1 -313 -2 -572
-3 -573 -1 -4 -31 20 -216 173 -60 50 -260 215 -444 366 -184 151 -429 352
-545 447 -116 95 -230 185 -253 198 -23 14 -82 39 -130 55 -71 25 -108 31
-188 33 -55 2 -121 -1 -147 -5z"/>
<path d="M5067 6765 c-26 -6 -57 -20 -69 -31 -12 -10 -28 -23 -34 -29 -6 -5
-31 -26 -55 -45 -24 -19 -99 -82 -168 -139 -70 -56 -144 -118 -166 -136 -38
-31 -458 -378 -500 -413 -11 -9 -58 -48 -105 -86 -47 -39 -87 -72 -90 -75 -3
-3 -41 -35 -85 -70 -44 -35 -84 -69 -90 -75 -5 -6 -41 -36 -80 -67 -65 -52
-176 -143 -525 -432 -176 -146 -164 -136 -250 -207 -41 -34 -84 -69 -95 -78
-11 -9 -70 -57 -130 -107 -61 -49 -112 -92 -115 -95 -3 -3 -64 -54 -137 -114
l-132 -108 2 -1271 c2 -1201 3 -1274 20 -1308 24 -48 72 -96 116 -117 33 -15
121 -16 946 -17 l910 0 45 25 c52 29 105 95 119 148 7 24 11 308 11 795 0 737
1 759 21 812 26 69 81 119 151 136 37 8 193 11 563 11 496 -1 514 -2 569 -22
65 -25 102 -65 128 -137 15 -43 17 -123 17 -813 l1 -765 26 -52 c31 -65 93
-120 148 -131 42 -9 1799 -9 1826 0 69 23 115 62 146 125 18 37 19 84 22 1309
l2 1271 -77 64 c-154 126 -318 262 -343 283 -22 18 -244 202 -564 466 -50 41
-390 322 -756 624 -366 301 -682 563 -704 580 -21 17 -43 36 -50 41 -54 49
-286 233 -306 242 -38 18 -109 22 -163 8z"/>
</g>
</svg>
